PathFileType	4	(X/Y/Z)	/Users/itak/Documents/Research/Walk-IL/dataset/trc/00154_00007.trc
DataRate	CameraRate	NumFrames	NumMarkers	Units	OrigDataRate	OrigDataStartFrame	OrigNumFrames
100.000000	100.000000	4	53	mm	100.000000	63	504
Frame#	Time	RPSI			LPSI			L3			STRN			T10			C7			CLAV			RBAK			LBAK			LSHO			LUPA			LAEL			LAOL			LWTS			LWPS			LFRA			LIFD			LHPS			LHTS			RSHO			RUPA			RAEL			RAOL			RWTS			RWPS			RFRA			RIFD			RHTS			RHPS			RBHD			LFHD			RFHD			LBHD			LHIP			RHIP			RASI			LASI			LKNE			LTHI			LANK			LTIP			LTOE			LMT1			LMT5			LHEE			RKNE			RTHI			RANK			RTIP			RTOE			RMT1			RMT5			RHEE			
		X1	Y1	Z1	X2	Y2	Z2	X3	Y3	Z3	X4	Y4	Z4	X5	Y5	Z5	X6	Y6	Z6	X7	Y7	Z7	X8	Y8	Z8	X9	Y9	Z9	X10	Y10	Z10	X11	Y11	Z11	X12	Y12	Z12	X13	Y13	Z13	X14	Y14	Z14	X15	Y15	Z15	X16	Y16	Z16	X17	Y17	Z17	X18	Y18	Z18	X19	Y19	Z19	X20	Y20	Z20	X21	Y21	Z21	X22	Y22	Z22	X23	Y23	Z23	X24	Y24	Z24	X25	Y25	Z25	X26	Y26	Z26	X27	Y27	Z27	X28	Y28	Z28	X29	Y29	Z29	X30	Y30	Z30	X31	Y31	Z31	X32	Y32	Z32	X33	Y33	Z33	X34	Y34	Z34	X35	Y35	Z35	X36	Y36	Z36	X37	Y37	Z37	X38	Y38	Z38	X39	Y39	Z39	X40	Y40	Z40	X41	Y41	Z41	X42	Y42	Z42	X43	Y43	Z43	X44	Y44	Z44	X45	Y45	Z45	X46	Y46	Z46	X47	Y47	Z47	X48	Y48	Z48	X49	Y49	Z49	X50	Y50	Z50	X51	Y51	Z51	X52	Y52	Z52	X53	Y53	Z53	

64	0.63	-1330.842163085938	1125.860473632812	-527.8126831054688	-1329.40625	1125.699462890625	-661.9984130859375	-1337.457641601562	1155.86474609375	-597.17529296875	-1128.338989257812	1357.88134765625	-599.1171875	-1379.957763671875	1303.929321289062	-599.9954223632812	-1351.35546875	1597.36767578125	-615.873291015625	-1168.666625976562	1491.627563476562	-605.5267944335938	-1403.20263671875	1413.2021484375	-526.4276733398438	-1357.65234375	1575.381469726562	-718.0891723632812	-1270.706787109375	1560.678344726562	-785.943115234375	-1289.380737304688	1427.641967773438	-853.7623291015625	-1271.287841796875	1206.7626953125	-869.855224609375	-1340.253662109375	1195.48876953125	-816.6228637695312	-1168.8544921875	953.9802856445312	-810.2020263671875	-1247.004516601562	924.9473266601562	-841.9511108398438	-1252.120727539062	1090.773559570312	-868.8580932617188	-1153.929321289062	761.7863159179688	-779.68310546875	-1215.78125	851.006103515625	-836.6355590820312	-1151.08251953125	865.6116943359375	-815.3804321289062	-1297.62109375	1581.385009765625	-434.0234375	-1314.03466796875	1507.858520507812	-370.096435546875	-1314.236206054688	1211.563110351562	-347.6956481933594	-1327.252563476562	1211.884033203125	-443.7761535644531	-1167.838500976562	971.9286499023438	-377.2224731445312	-1238.941528320312	953.2149047851562	-338.48681640625	-1288.11083984375	1138.961547851562	-334.5254821777344	-1139.285400390625	779.0531616210938	-398.5628967285156	-1135.799926757812	864.8328247070312	-375.3311462402344	-1199.773071289062	854.1470336914062	-338.8167419433594	-1319.922729492188	1766.204833984375	-536.80419921875	-1163.45849609375	1844.619018554688	-670.72021484375	-1161.973022460938	1846.6806640625	-541.2029418945312	-1329.591064453125	1767.245727539062	-671.6821899414062	-1238.077392578125	1034.652465820312	-767.8555908203125	-1206.27392578125	1031.462158203125	-408.1909790039062	-1123.8349609375	1102.303588867188	-460.3566589355469	-1130.824584960938	1099.19873046875	-727.2880859375	-1222.349243164062	532.6500854492188	-727.406982421875	-1239.775390625	678.8380737304688	-758.1032104492188	-1350.829223632812	35.22930145263672	-707.563232421875	-1330.07861328125	288.7904968261719	-746.234130859375	-1118.380004882812	35.88367462158203	-650.55029296875	-1200.854248046875	41.26095962524414	-618.42529296875	-1225.276733398438	32.5154914855957	-734.5902099609375	-1418.604736328125	36.07682800292969	-645.2614135742188	-1231.596069335938	536.946044921875	-442.8266296386719	-1193.074462890625	816.5376586914062	-416.7677001953125	-1344.596313476562	27.58496856689453	-463.0210876464844	-1262.766967773438	404.8502197265625	-431.3731384277344	-1115.243774414062	41.82366943359375	-521.8008422851562	-1176.562377929688	30.08955574035645	-563.2998657226562	-1209.769653320312	38.46574401855469	-447.0031127929688	-1403.699829101562	29.31210517883301	-509.8374633789062	
65	0.64	-1330.4375	1125.880737304688	-528.2589721679688	-1329.042358398438	1125.705810546875	-662.4675903320312	-1336.972045898438	1155.880981445312	-597.6160278320312	-1127.832275390625	1357.77685546875	-599.5133056640625	-1379.442016601562	1303.99609375	-600.4572143554688	-1350.642578125	1597.405639648438	-616.3055419921875	-1168.007690429688	1491.559692382812	-605.9019165039062	-1402.676025390625	1413.320068359375	-526.882080078125	-1356.947387695312	1575.43896484375	-718.5317993164062	-1269.990234375	1560.670654296875	-786.3565673828125	-1288.699951171875	1427.649658203125	-854.1661376953125	-1270.713012695312	1206.752685546875	-870.2537841796875	-1339.78076171875	1195.5029296875	-817.0491333007812	-1168.473388671875	953.9130859375	-810.6062622070312	-1246.607421875	924.9192504882812	-842.3472900390625	-1251.639526367188	1090.742431640625	-869.2577514648438	-1153.632202148438	761.7161865234375	-780.0965576171875	-1215.417358398438	850.9641723632812	-837.0342407226562	-1150.705078125	865.5352172851562	-815.75390625	-1296.957641601562	1581.393432617188	-434.4320678710938	-1313.417114257812	1507.878540039062	-370.5052185058594	-1313.848022460938	1211.604370117188	-348.0425415039062	-1326.796264648438	1211.90087890625	-444.1059875488281	-1167.5078125	971.8653564453125	-377.43017578125	-1238.692260742188	953.2147827148438	-338.7261962890625	-1287.7373046875	1138.993041992188	-334.8314819335938	-1139.217651367188	778.9282836914062	-398.6894836425781	-1135.590209960938	864.7847290039062	-375.5018920898438	-1199.586059570312	854.1248779296875	-338.9906616210938	-1318.988159179688	1766.232543945312	-537.2388916015625	-1162.44775390625	1844.509521484375	-671.1332397460938	-1160.982055664062	1846.59326171875	-541.5947875976562	-1328.58251953125	1767.281127929688	-672.1214599609375	-1237.740844726562	1034.580932617188	-768.2964477539062	-1205.948364257812	1031.447631835938	-408.5736389160156	-1123.501953125	1102.215942382812	-460.768310546875	-1130.442138671875	1099.1162109375	-727.6779174804688	-1221.956176757812	532.51953125	-727.5673217773438	-1239.389404296875	678.7348022460938	-758.362548828125	-1350.823974609375	35.23539352416992	-707.5573120117188	-1329.802734375	288.7149047851562	-746.2685546875	-1118.408081054688	35.88882446289062	-650.5214233398438	-1200.870971679688	41.23528671264648	-618.4046630859375	-1225.276245117188	32.52322006225586	-734.5646362304688	-1418.610107421875	36.06439971923828	-645.266357421875	-1231.430786132812	536.9547729492188	-443.010986328125	-1192.92578125	816.4683837890625	-417.0243835449219	-1344.6025390625	27.54945373535156	-462.9700317382812	-1262.669555664062	404.8570861816406	-431.4520263671875	-1115.274169921875	41.84912109375	-521.78466796875	-1176.558837890625	30.11702346801758	-563.2420654296875	-1209.769653320312	38.4616584777832	-446.9749145507812	-1403.715698242188	29.30443954467773	-509.8234252929688	
66	0.65	-1330.017456054688	1125.899780273438	-528.7230224609375	-1328.646484375	1125.711303710938	-662.9509887695312	-1336.49462890625	1155.89501953125	-598.0789184570312	-1127.303588867188	1357.671264648438	-599.9275512695312	-1378.910400390625	1304.064819335938	-600.9356079101562	-1349.88427734375	1597.433837890625	-616.739013671875	-1167.323974609375	1491.48681640625	-606.2905883789062	-1402.142456054688	1413.4326171875	-527.359619140625	-1356.226928710938	1575.497314453125	-718.9923706054688	-1269.251098632812	1560.6591796875	-786.7869262695312	-1288.003173828125	1427.662963867188	-854.5925903320312	-1270.122924804688	1206.743286132812	-870.6659545898438	-1339.28466796875	1195.5234375	-817.4918823242188	-1168.098999023438	953.8344116210938	-811.0269165039062	-1246.22607421875	924.8888549804688	-842.7614135742188	-1251.152465820312	1090.712158203125	-869.670166015625	-1153.374389648438	761.6334838867188	-780.5255737304688	-1215.07958984375	850.9166259765625	-837.451171875	-1150.35107421875	865.4420166015625	-816.1414794921875	-1296.283569335938	1581.40185546875	-434.8606872558594	-1312.797729492188	1507.905395507812	-370.9352111816406	-1313.4580078125	1211.647338867188	-348.4014282226562	-1326.307006835938	1211.91943359375	-444.4425964355469	-1167.186401367188	971.7989501953125	-377.6303100585938	-1238.431518554688	953.2177124023438	-338.9702453613281	-1287.363647460938	1139.024536132812	-335.1453552246094	-1139.160766601562	778.7852783203125	-398.7952575683594	-1135.373657226562	864.7371215820312	-375.6583251953125	-1199.396606445312	854.1071166992188	-339.161376953125	-1318.029541015625	1766.278930664062	-537.691650390625	-1161.40283203125	1844.37841796875	-671.5635986328125	-1159.944580078125	1846.490356445312	-541.9959716796875	-1327.566772460938	1767.326049804688	-672.5836181640625	-1237.399536132812	1034.497314453125	-768.75830078125	-1205.586669921875	1031.422729492188	-408.9760131835938	-1123.173583984375	1102.128662109375	-461.1925048828125	-1130.0576171875	1099.029174804688	-728.0902709960938	-1221.515747070312	532.3976440429688	-727.7333984375	-1238.9716796875	678.6263427734375	-758.6258544921875	-1350.817260742188	35.24649047851562	-707.5479736328125	-1329.512939453125	288.6346740722656	-746.3003540039062	-1118.429443359375	35.89143371582031	-650.4866333007812	-1200.88232421875	41.20703506469727	-618.3829956054688	-1225.278564453125	32.53456497192383	-734.5345458984375	-1418.614135742188	36.05559539794922	-645.2689208984375	-1231.246704101562	536.9614868164062	-443.2235107421875	-1192.778564453125	816.3822631835938	-417.30029296875	-1344.60498046875	27.50918388366699	-462.9196472167969	-1262.546264648438	404.8593444824219	-431.5521545410156	-1115.30224609375	41.87191009521484	-521.7716064453125	-1176.566528320312	30.1341609954834	-563.1909790039062	-1209.770629882812	38.46082305908203	-446.9495849609375	-1403.73046875	29.29510307312012	-509.8121643066406	
67	0.66	-1329.5869140625	1125.918212890625	-529.2084350585938	-1328.206298828125	1125.716552734375	-663.4486694335938	-1336.034057617188	1155.908813476562	-598.5691528320312	-1126.7578125	1357.560913085938	-600.3589477539062	-1378.361694335938	1304.133911132812	-601.4326171875	-1349.089965820312	1597.455200195312	-617.1807861328125	-1166.624145507812	1491.41064453125	-606.6967163085938	-1401.594360351562	1413.535034179688	-527.85888671875	-1355.487426757812	1575.554443359375	-719.4710693359375	-1268.489624023438	1560.642211914062	-787.2369995117188	-1287.29150390625	1427.679321289062	-855.0432739257812	-1269.518920898438	1206.733520507812	-871.0946655273438	-1338.762451171875	1195.55078125	-817.9545288085938	-1167.72900390625	953.747314453125	-811.4547119140625	-1245.861694335938	924.8577880859375	-843.1949462890625	-1250.658203125	1090.682861328125	-870.0969848632812	-1153.151245117188	761.540283203125	-780.962646484375	-1214.767578125	850.863525390625	-837.8837280273438	-1150.026000976562	865.331298828125	-816.543212890625	-1295.603271484375	1581.4130859375	-435.3135986328125	-1312.180786132812	1507.93994140625	-371.388427734375	-1313.063354492188	1211.692626953125	-348.7718811035156	-1325.7919921875	1211.9404296875	-444.7882995605469	-1166.875854492188	971.7340698242188	-377.8211975097656	-1238.159912109375	953.2235717773438	-339.2188720703125	-1286.989013671875	1139.0576171875	-335.4678344726562	-1139.105224609375	778.6305541992188	-398.8884887695312	-1135.14794921875	864.6859130859375	-375.8067321777344	-1199.203735351562	854.091796875	-339.3341064453125	-1317.054809570312	1766.34423828125	-538.1677856445312	-1160.321166992188	1844.2265625	-672.0096435546875	-1158.860595703125	1846.372680664062	-542.4064331054688	-1326.54248046875	1767.379638671875	-673.0691528320312	-1237.0458984375	1034.404663085938	-769.242431640625	-1205.196899414062	1031.387451171875	-409.3987121582031	-1122.850952148438	1102.04296875	-461.627197265625	-1129.666137695312	1098.938354492188	-728.5291137695312	-1221.040161132812	532.2864379882812	-727.908203125	-1238.522338867188	678.5128173828125	-758.8951416015625	-1350.808715820312	35.26259613037109	-707.5377807617188	-1329.2060546875	288.5494384765625	-746.3277587890625	-1118.443725585938	35.89221954345703	-650.4470825195312	-1200.888916015625	41.1762809753418	-618.3622436523438	-1225.283081054688	32.54961013793945	-734.50048828125	-1418.616333007812	36.05009078979492	-645.26953125	-1231.038452148438	536.9646606445312	-443.4610290527344	-1192.620483398438	816.2803955078125	-417.5968933105469	-1344.607543945312	27.4714412689209	-462.8743286132812	-1262.387573242188	404.8559875488281	-431.6748046875	-1115.326293945312	41.89339447021484	-521.761474609375	-1176.589599609375	30.14082336425781	-563.1460571289062	-1209.774291992188	38.46145248413086	-446.9276733398438	-1403.743408203125	29.28503036499023	-509.8031311035156	
